<svg id="Calque_1" data-name="Calque 1" xmlns="http://www.w3.org/2000/svg" xmlns:xlink="http://www.w3.org/1999/xlink" viewBox="0 0 60.44 53.42"><defs><style>.cls-1{fill:#fff;}.cls-1,.cls-2,.cls-3,.cls-4,.cls-5,.cls-6,.cls-8{stroke:#1d1d1b;stroke-miterlimit:10;}.cls-2{fill:url(#Dégradé_sans_nom_4);}.cls-3{fill:url(#Dégradé_sans_nom_2);}.cls-4{fill:url(#Dégradé_sans_nom_4-2);}.cls-5{fill:url(#Dégradé_sans_nom_5);}.cls-6{fill:url(#Dégradé_sans_nom_4-3);}.cls-7{fill:#1d1d1b;}.cls-8{fill:none;}</style><linearGradient id="Dégradé_sans_nom_4" x1="29.71" y1="7.09" x2="41.56" y2="7.09" gradientUnits="userSpaceOnUse"><stop offset="0" stop-color="#432918"/><stop offset="1" stop-color="#7d4e24"/></linearGradient><linearGradient id="Dégradé_sans_nom_2" x1="3.19" y1="29.17" x2="55.52" y2="29.17" gradientTransform="matrix(1.01, 0.01, 0.01, 1.01, -2.78, -2.95)" gradientUnits="userSpaceOnUse"><stop offset="0" stop-color="#a3195b"/><stop offset="1" stop-color="#e30613"/></linearGradient><linearGradient id="Dégradé_sans_nom_4-2" x1="41.56" y1="7.09" x2="53.42" y2="7.09" xlink:href="#Dégradé_sans_nom_4"/><linearGradient id="Dégradé_sans_nom_5" x1="43.03" y1="18.2" x2="54.88" y2="18.2" gradientUnits="userSpaceOnUse"><stop offset="0" stop-color="#c6c6c6"/><stop offset="0.19" stop-color="#c2c2c2"/><stop offset="0.37" stop-color="#b7b7b7"/><stop offset="0.55" stop-color="#a4a4a4"/><stop offset="0.72" stop-color="#8a8a8a"/><stop offset="0.86" stop-color="#706f6f"/></linearGradient><linearGradient id="Dégradé_sans_nom_4-3" x1="41.56" y1="17.92" x2="53.42" y2="17.92" xlink:href="#Dégradé_sans_nom_4"/></defs><rect class="cls-1" x="29.71" y="1.95" width="11.85" height="10.83"/><rect class="cls-1" x="29.71" y="12.78" width="11.85" height="10.83"/><rect class="cls-2" x="29.71" y="1.67" width="11.85" height="10.83"/><rect class="cls-1" x="41.56" y="12.78" width="11.85" height="10.83"/><polygon class="cls-3" points="23.92 52.72 0.71 29.81 30.21 0.7 53.42 23.61 23.92 52.72"/><rect class="cls-4" x="41.56" y="1.67" width="11.85" height="10.83"/><polyline class="cls-5" points="53.42 23.61 41.56 23.61 41.56 12.78"/><polyline class="cls-6" points="41.56 12.5 53.42 12.5 53.42 23.33"/><text x="-0.48" y="-0.65"/><text x="-0.48" y="-0.65"/><path class="cls-7" d="M23.5,25.76c3.22,0,3.22-5,0-5s-3.22,5,0,5Z" transform="translate(-0.48 -0.65)"/><path class="cls-7" d="M31.19,26c3.22,0,3.22-5,0-5s-3.22,5,0,5Z" transform="translate(-0.48 -0.65)"/><path class="cls-8" d="M35.25,30.71h-.06a12.17,12.17,0,0,1-6.13,2.77c-5.85.84-10.11-3-10.64-3.48" transform="translate(-0.48 -0.65)"/></svg>